<svg xmlns="http://www.w3.org/2000/svg" width="1280" height="720" viewBox="0 0 1280 720">
<rect width="1280" height="720" fill="#ffffff"/>
<text x="110" y="45" font-family="Arial, sans-serif" font-size="28" font-weight="700" fill="#1f2933">Variacion de resistencia del sensor PT100</text>
<text x="515.0" y="685" text-anchor="middle" font-family="Arial, sans-serif" font-size="20" fill="#243b53">Temperatura nominal, T (C)</text>
<text x="32" y="352.5" transform="rotate(-90 32 352.5)" text-anchor="middle" font-family="Arial, sans-serif" font-size="20" fill="#243b53">Resistencia del PT100 (ohm)</text>
<rect x="110" y="80" width="810" height="545" fill="#f7fafc" stroke="#bcccdc" stroke-width="1"/>
<line x1="110.0" y1="80" x2="110.0" y2="625" stroke="#d9e2ec" stroke-width="1"/>
<text x="110.0" y="653" text-anchor="middle" font-family="Arial, sans-serif" font-size="16" fill="#52606d">0.00</text>
<line x1="272.0" y1="80" x2="272.0" y2="625" stroke="#d9e2ec" stroke-width="1"/>
<text x="272.0" y="653" text-anchor="middle" font-family="Arial, sans-serif" font-size="16" fill="#52606d">20</text>
<line x1="434.0" y1="80" x2="434.0" y2="625" stroke="#d9e2ec" stroke-width="1"/>
<text x="434.0" y="653" text-anchor="middle" font-family="Arial, sans-serif" font-size="16" fill="#52606d">40</text>
<line x1="596.0" y1="80" x2="596.0" y2="625" stroke="#d9e2ec" stroke-width="1"/>
<text x="596.0" y="653" text-anchor="middle" font-family="Arial, sans-serif" font-size="16" fill="#52606d">60</text>
<line x1="758.0" y1="80" x2="758.0" y2="625" stroke="#d9e2ec" stroke-width="1"/>
<text x="758.0" y="653" text-anchor="middle" font-family="Arial, sans-serif" font-size="16" fill="#52606d">80</text>
<line x1="920.0" y1="80" x2="920.0" y2="625" stroke="#d9e2ec" stroke-width="1"/>
<text x="920.0" y="653" text-anchor="middle" font-family="Arial, sans-serif" font-size="16" fill="#52606d">100</text>
<line x1="110" y1="625.0" x2="920" y2="625.0" stroke="#d9e2ec" stroke-width="1"/>
<text x="96" y="630.0" text-anchor="end" font-family="Arial, sans-serif" font-size="16" fill="#52606d">95</text>
<line x1="110" y1="516.0" x2="920" y2="516.0" stroke="#d9e2ec" stroke-width="1"/>
<text x="96" y="521.0" text-anchor="end" font-family="Arial, sans-serif" font-size="16" fill="#52606d">104</text>
<line x1="110" y1="407.0" x2="920" y2="407.0" stroke="#d9e2ec" stroke-width="1"/>
<text x="96" y="412.0" text-anchor="end" font-family="Arial, sans-serif" font-size="16" fill="#52606d">114</text>
<line x1="110" y1="298.0" x2="920" y2="298.0" stroke="#d9e2ec" stroke-width="1"/>
<text x="96" y="303.0" text-anchor="end" font-family="Arial, sans-serif" font-size="16" fill="#52606d">123</text>
<line x1="110" y1="189.0" x2="920" y2="189.0" stroke="#d9e2ec" stroke-width="1"/>
<text x="96" y="194.0" text-anchor="end" font-family="Arial, sans-serif" font-size="16" fill="#52606d">133</text>
<line x1="110" y1="80.0" x2="920" y2="80.0" stroke="#d9e2ec" stroke-width="1"/>
<text x="96" y="85.0" text-anchor="end" font-family="Arial, sans-serif" font-size="16" fill="#52606d">142</text>
<polyline fill="none" stroke="#2563eb" stroke-width="4" stroke-linejoin="round" stroke-linecap="round" points="110.0,567.0 272.0,476.6 515.0,342.1 920.0,120.5"/>
<circle cx="110.0" cy="567.0" r="4.5" fill="#2563eb" stroke="#ffffff" stroke-width="2"/>
<circle cx="272.0" cy="476.6" r="4.5" fill="#2563eb" stroke="#ffffff" stroke-width="2"/>
<circle cx="515.0" cy="342.1" r="4.5" fill="#2563eb" stroke="#ffffff" stroke-width="2"/>
<circle cx="920.0" cy="120.5" r="4.5" fill="#2563eb" stroke="#ffffff" stroke-width="2"/>
<polyline fill="none" stroke="#dc2626" stroke-width="4" stroke-linejoin="round" stroke-linecap="round" stroke-dasharray="9 8" points="110.0,567.0 272.0,499.2 515.0,364.4 920.0,142.5"/>
<circle cx="110.0" cy="567.0" r="4.5" fill="#dc2626" stroke="#ffffff" stroke-width="2"/>
<circle cx="272.0" cy="499.2" r="4.5" fill="#dc2626" stroke="#ffffff" stroke-width="2"/>
<circle cx="515.0" cy="364.4" r="4.5" fill="#dc2626" stroke="#ffffff" stroke-width="2"/>
<circle cx="920.0" cy="142.5" r="4.5" fill="#dc2626" stroke="#ffffff" stroke-width="2"/>
<polyline fill="none" stroke="#92400e" stroke-width="4" stroke-linejoin="round" stroke-linecap="round" stroke-dasharray="9 8" points="110.0,544.4 272.0,454.1 515.0,319.8 920.0,120.5"/>
<circle cx="110.0" cy="544.4" r="4.5" fill="#92400e" stroke="#ffffff" stroke-width="2"/>
<circle cx="272.0" cy="454.1" r="4.5" fill="#92400e" stroke="#ffffff" stroke-width="2"/>
<circle cx="515.0" cy="319.8" r="4.5" fill="#92400e" stroke="#ffffff" stroke-width="2"/>
<circle cx="920.0" cy="120.5" r="4.5" fill="#92400e" stroke="#ffffff" stroke-width="2"/>
<line x1="955" y1="92" x2="989" y2="92" stroke="#2563eb" stroke-width="4" stroke-linecap="round"/>
<text x="1001" y="98" font-family="Arial, sans-serif" font-size="17" fill="#243b53">Valor nominal</text>
<line x1="955" y1="126" x2="989" y2="126" stroke="#dc2626" stroke-width="4" stroke-linecap="round" stroke-dasharray="9 8"/>
<text x="1001" y="132" font-family="Arial, sans-serif" font-size="17" fill="#243b53">Temperatura baja</text>
<line x1="955" y1="160" x2="989" y2="160" stroke="#92400e" stroke-width="4" stroke-linecap="round" stroke-dasharray="9 8"/>
<text x="1001" y="166" font-family="Arial, sans-serif" font-size="17" fill="#243b53">Temperatura alta</text>
</svg>