<svg xmlns="http://www.w3.org/2000/svg" width="1280" height="720" viewBox="0 0 1280 720">
<rect width="1280" height="720" fill="#ffffff"/>
<text x="110" y="45" font-family="Arial, sans-serif" font-size="28" font-weight="700" fill="#1f2933">Respuesta simulada del canal PT100</text>
<text x="515.0" y="685" text-anchor="middle" font-family="Arial, sans-serif" font-size="20" fill="#243b53">Temperatura del PT100 (C)</text>
<text x="32" y="352.5" transform="rotate(-90 32 352.5)" text-anchor="middle" font-family="Arial, sans-serif" font-size="20" fill="#243b53">Voltaje (V)</text>
<rect x="110" y="80" width="810" height="545" fill="#f7fafc" stroke="#bcccdc" stroke-width="1"/>
<line x1="110.0" y1="80" x2="110.0" y2="625" stroke="#d9e2ec" stroke-width="1"/>
<text x="110.0" y="653" text-anchor="middle" font-family="Arial, sans-serif" font-size="16" fill="#52606d">40</text>
<line x1="272.0" y1="80" x2="272.0" y2="625" stroke="#d9e2ec" stroke-width="1"/>
<text x="272.0" y="653" text-anchor="middle" font-family="Arial, sans-serif" font-size="16" fill="#52606d">58</text>
<line x1="434.0" y1="80" x2="434.0" y2="625" stroke="#d9e2ec" stroke-width="1"/>
<text x="434.0" y="653" text-anchor="middle" font-family="Arial, sans-serif" font-size="16" fill="#52606d">76</text>
<line x1="596.0" y1="80" x2="596.0" y2="625" stroke="#d9e2ec" stroke-width="1"/>
<text x="596.0" y="653" text-anchor="middle" font-family="Arial, sans-serif" font-size="16" fill="#52606d">94</text>
<line x1="758.0" y1="80" x2="758.0" y2="625" stroke="#d9e2ec" stroke-width="1"/>
<text x="758.0" y="653" text-anchor="middle" font-family="Arial, sans-serif" font-size="16" fill="#52606d">112</text>
<line x1="920.0" y1="80" x2="920.0" y2="625" stroke="#d9e2ec" stroke-width="1"/>
<text x="920.0" y="653" text-anchor="middle" font-family="Arial, sans-serif" font-size="16" fill="#52606d">130</text>
<line x1="110" y1="625.0" x2="920" y2="625.0" stroke="#d9e2ec" stroke-width="1"/>
<text x="96" y="630.0" text-anchor="end" font-family="Arial, sans-serif" font-size="16" fill="#52606d">-5.2</text>
<line x1="110" y1="516.0" x2="920" y2="516.0" stroke="#d9e2ec" stroke-width="1"/>
<text x="96" y="521.0" text-anchor="end" font-family="Arial, sans-serif" font-size="16" fill="#52606d">-3.1</text>
<line x1="110" y1="407.0" x2="920" y2="407.0" stroke="#d9e2ec" stroke-width="1"/>
<text x="96" y="412.0" text-anchor="end" font-family="Arial, sans-serif" font-size="16" fill="#52606d">-1.1</text>
<line x1="110" y1="298.0" x2="920" y2="298.0" stroke="#d9e2ec" stroke-width="1"/>
<text x="96" y="303.0" text-anchor="end" font-family="Arial, sans-serif" font-size="16" fill="#52606d">0.97</text>
<line x1="110" y1="189.0" x2="920" y2="189.0" stroke="#d9e2ec" stroke-width="1"/>
<text x="96" y="194.0" text-anchor="end" font-family="Arial, sans-serif" font-size="16" fill="#52606d">3.0</text>
<line x1="110" y1="80.0" x2="920" y2="80.0" stroke="#d9e2ec" stroke-width="1"/>
<text x="96" y="85.0" text-anchor="end" font-family="Arial, sans-serif" font-size="16" fill="#52606d">5.1</text>
<polyline fill="none" stroke="#2563eb" stroke-width="4" stroke-linejoin="round" stroke-linecap="round" points="110.0,587.4 200.0,535.2 290.0,483.0 380.0,430.8 470.0,378.6 560.0,326.4 650.0,274.2 740.0,222.0 830.0,169.8 920.0,117.6"/>
<circle cx="110.0" cy="587.4" r="4.5" fill="#2563eb" stroke="#ffffff" stroke-width="2"/>
<circle cx="200.0" cy="535.2" r="4.5" fill="#2563eb" stroke="#ffffff" stroke-width="2"/>
<circle cx="290.0" cy="483.0" r="4.5" fill="#2563eb" stroke="#ffffff" stroke-width="2"/>
<circle cx="380.0" cy="430.8" r="4.5" fill="#2563eb" stroke="#ffffff" stroke-width="2"/>
<circle cx="470.0" cy="378.6" r="4.5" fill="#2563eb" stroke="#ffffff" stroke-width="2"/>
<circle cx="560.0" cy="326.4" r="4.5" fill="#2563eb" stroke="#ffffff" stroke-width="2"/>
<circle cx="650.0" cy="274.2" r="4.5" fill="#2563eb" stroke="#ffffff" stroke-width="2"/>
<circle cx="740.0" cy="222.0" r="4.5" fill="#2563eb" stroke="#ffffff" stroke-width="2"/>
<circle cx="830.0" cy="169.8" r="4.5" fill="#2563eb" stroke="#ffffff" stroke-width="2"/>
<circle cx="920.0" cy="117.6" r="4.5" fill="#2563eb" stroke="#ffffff" stroke-width="2"/>
<polyline fill="none" stroke="#16a34a" stroke-width="4" stroke-linejoin="round" stroke-linecap="round" points="110.0,349.2 200.0,349.0 290.0,348.8 380.0,348.6 470.0,348.3 560.0,348.1 650.0,347.9 740.0,347.7 830.0,347.5 920.0,347.3"/>
<circle cx="110.0" cy="349.2" r="4.5" fill="#16a34a" stroke="#ffffff" stroke-width="2"/>
<circle cx="200.0" cy="349.0" r="4.5" fill="#16a34a" stroke="#ffffff" stroke-width="2"/>
<circle cx="290.0" cy="348.8" r="4.5" fill="#16a34a" stroke="#ffffff" stroke-width="2"/>
<circle cx="380.0" cy="348.6" r="4.5" fill="#16a34a" stroke="#ffffff" stroke-width="2"/>
<circle cx="470.0" cy="348.3" r="4.5" fill="#16a34a" stroke="#ffffff" stroke-width="2"/>
<circle cx="560.0" cy="348.1" r="4.5" fill="#16a34a" stroke="#ffffff" stroke-width="2"/>
<circle cx="650.0" cy="347.9" r="4.5" fill="#16a34a" stroke="#ffffff" stroke-width="2"/>
<circle cx="740.0" cy="347.7" r="4.5" fill="#16a34a" stroke="#ffffff" stroke-width="2"/>
<circle cx="830.0" cy="347.5" r="4.5" fill="#16a34a" stroke="#ffffff" stroke-width="2"/>
<circle cx="920.0" cy="347.3" r="4.5" fill="#16a34a" stroke="#ffffff" stroke-width="2"/>
<line x1="955" y1="92" x2="989" y2="92" stroke="#2563eb" stroke-width="4" stroke-linecap="round"/>
<text x="1001" y="98" font-family="Arial, sans-serif" font-size="17" fill="#243b53">Salida PT100 a B-Box</text>
<line x1="955" y1="126" x2="989" y2="126" stroke="#16a34a" stroke-width="4" stroke-linecap="round"/>
<text x="1001" y="132" font-family="Arial, sans-serif" font-size="17" fill="#243b53">Entrada diferencial INA</text>
</svg>