<svg xmlns="http://www.w3.org/2000/svg" width="1280" height="720" viewBox="0 0 1280 720">
<rect width="1280" height="720" fill="#ffffff"/>
<text x="110" y="45" font-family="Arial, sans-serif" font-size="28" font-weight="700" fill="#1f2933">Senal diferencial del puente SM-50</text>
<text x="515.0" y="685" text-anchor="middle" font-family="Arial, sans-serif" font-size="20" fill="#243b53">Carga aplicada (lb)</text>
<text x="32" y="352.5" transform="rotate(-90 32 352.5)" text-anchor="middle" font-family="Arial, sans-serif" font-size="20" fill="#243b53">Tension diferencial del puente (mV)</text>
<rect x="110" y="80" width="810" height="545" fill="#f7fafc" stroke="#bcccdc" stroke-width="1"/>
<line x1="110.0" y1="80" x2="110.0" y2="625" stroke="#d9e2ec" stroke-width="1"/>
<text x="110.0" y="653" text-anchor="middle" font-family="Arial, sans-serif" font-size="16" fill="#52606d">0.00</text>
<line x1="272.0" y1="80" x2="272.0" y2="625" stroke="#d9e2ec" stroke-width="1"/>
<text x="272.0" y="653" text-anchor="middle" font-family="Arial, sans-serif" font-size="16" fill="#52606d">10</text>
<line x1="434.0" y1="80" x2="434.0" y2="625" stroke="#d9e2ec" stroke-width="1"/>
<text x="434.0" y="653" text-anchor="middle" font-family="Arial, sans-serif" font-size="16" fill="#52606d">20</text>
<line x1="596.0" y1="80" x2="596.0" y2="625" stroke="#d9e2ec" stroke-width="1"/>
<text x="596.0" y="653" text-anchor="middle" font-family="Arial, sans-serif" font-size="16" fill="#52606d">30</text>
<line x1="758.0" y1="80" x2="758.0" y2="625" stroke="#d9e2ec" stroke-width="1"/>
<text x="758.0" y="653" text-anchor="middle" font-family="Arial, sans-serif" font-size="16" fill="#52606d">40</text>
<line x1="920.0" y1="80" x2="920.0" y2="625" stroke="#d9e2ec" stroke-width="1"/>
<text x="920.0" y="653" text-anchor="middle" font-family="Arial, sans-serif" font-size="16" fill="#52606d">50</text>
<line x1="110" y1="625.0" x2="920" y2="625.0" stroke="#d9e2ec" stroke-width="1"/>
<text x="96" y="630.0" text-anchor="end" font-family="Arial, sans-serif" font-size="16" fill="#52606d">0.00</text>
<line x1="110" y1="516.0" x2="920" y2="516.0" stroke="#d9e2ec" stroke-width="1"/>
<text x="96" y="521.0" text-anchor="end" font-family="Arial, sans-serif" font-size="16" fill="#52606d">6.4</text>
<line x1="110" y1="407.0" x2="920" y2="407.0" stroke="#d9e2ec" stroke-width="1"/>
<text x="96" y="412.0" text-anchor="end" font-family="Arial, sans-serif" font-size="16" fill="#52606d">13</text>
<line x1="110" y1="298.0" x2="920" y2="298.0" stroke="#d9e2ec" stroke-width="1"/>
<text x="96" y="303.0" text-anchor="end" font-family="Arial, sans-serif" font-size="16" fill="#52606d">19</text>
<line x1="110" y1="189.0" x2="920" y2="189.0" stroke="#d9e2ec" stroke-width="1"/>
<text x="96" y="194.0" text-anchor="end" font-family="Arial, sans-serif" font-size="16" fill="#52606d">26</text>
<line x1="110" y1="80.0" x2="920" y2="80.0" stroke="#d9e2ec" stroke-width="1"/>
<text x="96" y="85.0" text-anchor="end" font-family="Arial, sans-serif" font-size="16" fill="#52606d">32</text>
<polyline fill="none" stroke="#2563eb" stroke-width="4" stroke-linejoin="round" stroke-linecap="round" points="110.0,625.0 272.0,522.3 434.0,419.4 596.0,316.7 758.0,213.9 920.0,111.2"/>
<circle cx="110.0" cy="625.0" r="4.5" fill="#2563eb" stroke="#ffffff" stroke-width="2"/>
<circle cx="272.0" cy="522.3" r="4.5" fill="#2563eb" stroke="#ffffff" stroke-width="2"/>
<circle cx="434.0" cy="419.4" r="4.5" fill="#2563eb" stroke="#ffffff" stroke-width="2"/>
<circle cx="596.0" cy="316.7" r="4.5" fill="#2563eb" stroke="#ffffff" stroke-width="2"/>
<circle cx="758.0" cy="213.9" r="4.5" fill="#2563eb" stroke="#ffffff" stroke-width="2"/>
<circle cx="920.0" cy="111.2" r="4.5" fill="#2563eb" stroke="#ffffff" stroke-width="2"/>
<line x1="955" y1="92" x2="989" y2="92" stroke="#2563eb" stroke-width="4" stroke-linecap="round"/>
<text x="1001" y="98" font-family="Arial, sans-serif" font-size="17" fill="#243b53">VSEN+ - VSEN-</text>
</svg>